<mxfile host="app.diagrams.net" agent="Mozilla/5.0 (Windows NT 10.0; Win64; x64) AppleWebKit/537.36 (KHTML, like Gecko) Chrome/137.0.0.0 Safari/537.36" version="26.2.14">
  <diagram name="Page-1" id="FaxwhTRy5LVhjp5MFKf1">
    <mxGraphModel dx="864" dy="1314" grid="0" gridSize="10" guides="1" tooltips="1" connect="1" arrows="1" fold="1" page="0" pageScale="1" pageWidth="1600" pageHeight="1200" math="0" shadow="0">
      <root>
        <mxCell id="0" />
        <mxCell id="1" parent="0" />
        <mxCell id="VNTfguZz3X94q699JYYR-1" value="&lt;b&gt;Level 1 &lt;/b&gt;(BBO or Best Bid Offer)" style="text;html=1;align=center;verticalAlign=middle;whiteSpace=wrap;rounded=0;" vertex="1" parent="1">
          <mxGeometry x="-89" y="-169" width="95" height="30" as="geometry" />
        </mxCell>
        <mxCell id="VNTfguZz3X94q699JYYR-2" value="" style="rounded=0;whiteSpace=wrap;html=1;" vertex="1" parent="1">
          <mxGeometry x="30" y="-184" width="255" height="60" as="geometry" />
        </mxCell>
        <mxCell id="VNTfguZz3X94q699JYYR-3" value="" style="endArrow=none;dashed=1;html=1;rounded=0;fontSize=12;startSize=8;endSize=8;curved=1;exitX=0.5;exitY=1;exitDx=0;exitDy=0;entryX=0.5;entryY=0;entryDx=0;entryDy=0;" edge="1" parent="1" source="VNTfguZz3X94q699JYYR-2" target="VNTfguZz3X94q699JYYR-2">
          <mxGeometry width="50" height="50" relative="1" as="geometry">
            <mxPoint x="158.5" y="-115" as="sourcePoint" />
            <mxPoint x="156.5" y="-186" as="targetPoint" />
          </mxGeometry>
        </mxCell>
        <mxCell id="VNTfguZz3X94q699JYYR-4" value="BB $100" style="text;html=1;align=center;verticalAlign=middle;whiteSpace=wrap;rounded=0;" vertex="1" parent="1">
          <mxGeometry x="62" y="-149" width="60" height="30" as="geometry" />
        </mxCell>
        <mxCell id="VNTfguZz3X94q699JYYR-5" value="$110 BA" style="text;html=1;align=center;verticalAlign=middle;whiteSpace=wrap;rounded=0;" vertex="1" parent="1">
          <mxGeometry x="189" y="-188" width="60" height="30" as="geometry" />
        </mxCell>
        <mxCell id="VNTfguZz3X94q699JYYR-6" value="&lt;b&gt;Stock A&lt;/b&gt;" style="text;html=1;align=center;verticalAlign=middle;whiteSpace=wrap;rounded=0;" vertex="1" parent="1">
          <mxGeometry x="127.5" y="-221" width="60" height="30" as="geometry" />
        </mxCell>
        <mxCell id="VNTfguZz3X94q699JYYR-7" value="&lt;b&gt;Level 2 &lt;/b&gt;(MBP or Market by Price)" style="text;html=1;align=center;verticalAlign=middle;whiteSpace=wrap;rounded=0;" vertex="1" parent="1">
          <mxGeometry x="-89" y="-40" width="95" height="30" as="geometry" />
        </mxCell>
        <mxCell id="VNTfguZz3X94q699JYYR-8" value="" style="rounded=0;whiteSpace=wrap;html=1;" vertex="1" parent="1">
          <mxGeometry x="30" y="-55" width="255" height="60" as="geometry" />
        </mxCell>
        <mxCell id="VNTfguZz3X94q699JYYR-9" value="" style="endArrow=none;dashed=1;html=1;rounded=0;fontSize=12;startSize=8;endSize=8;curved=1;exitX=0.5;exitY=1;exitDx=0;exitDy=0;entryX=0.5;entryY=0;entryDx=0;entryDy=0;" edge="1" parent="1" source="VNTfguZz3X94q699JYYR-8" target="VNTfguZz3X94q699JYYR-8">
          <mxGeometry width="50" height="50" relative="1" as="geometry">
            <mxPoint x="158.5" y="14" as="sourcePoint" />
            <mxPoint x="156.5" y="-57" as="targetPoint" />
          </mxGeometry>
        </mxCell>
        <mxCell id="VNTfguZz3X94q699JYYR-10" value="1 5 x $100" style="text;html=1;align=center;verticalAlign=middle;whiteSpace=wrap;rounded=0;" vertex="1" parent="1">
          <mxGeometry x="59" y="-40" width="60" height="30" as="geometry" />
        </mxCell>
        <mxCell id="VNTfguZz3X94q699JYYR-11" value="2 5 x $110" style="text;html=1;align=center;verticalAlign=middle;whiteSpace=wrap;rounded=0;" vertex="1" parent="1">
          <mxGeometry x="189" y="-40" width="60" height="30" as="geometry" />
        </mxCell>
        <mxCell id="VNTfguZz3X94q699JYYR-13" value="2 10 x $90" style="text;html=1;align=center;verticalAlign=middle;whiteSpace=wrap;rounded=0;" vertex="1" parent="1">
          <mxGeometry x="59" y="-23" width="60" height="30" as="geometry" />
        </mxCell>
        <mxCell id="VNTfguZz3X94q699JYYR-14" value="$120" style="text;html=1;align=center;verticalAlign=middle;whiteSpace=wrap;rounded=0;" vertex="1" parent="1">
          <mxGeometry x="187.5" y="-58" width="60" height="30" as="geometry" />
        </mxCell>
        <mxCell id="VNTfguZz3X94q699JYYR-15" value="[count] [#] x [price]" style="text;html=1;align=center;verticalAlign=middle;whiteSpace=wrap;rounded=0;" vertex="1" parent="1">
          <mxGeometry x="34.5" y="-81" width="109" height="30" as="geometry" />
        </mxCell>
        <mxCell id="VNTfguZz3X94q699JYYR-16" value="&lt;b&gt;Level 3 &lt;/b&gt;(MBO or Market by Order)" style="text;html=1;align=center;verticalAlign=middle;whiteSpace=wrap;rounded=0;" vertex="1" parent="1">
          <mxGeometry x="-89" y="70" width="95" height="30" as="geometry" />
        </mxCell>
        <mxCell id="VNTfguZz3X94q699JYYR-17" value="" style="rounded=0;whiteSpace=wrap;html=1;" vertex="1" parent="1">
          <mxGeometry x="30" y="63" width="255" height="60" as="geometry" />
        </mxCell>
        <mxCell id="VNTfguZz3X94q699JYYR-18" value="" style="endArrow=none;dashed=1;html=1;rounded=0;fontSize=12;startSize=8;endSize=8;curved=1;exitX=0.5;exitY=1;exitDx=0;exitDy=0;entryX=0.5;entryY=0;entryDx=0;entryDy=0;" edge="1" parent="1" source="VNTfguZz3X94q699JYYR-17" target="VNTfguZz3X94q699JYYR-17">
          <mxGeometry width="50" height="50" relative="1" as="geometry">
            <mxPoint x="158.5" y="132" as="sourcePoint" />
            <mxPoint x="156.5" y="61" as="targetPoint" />
          </mxGeometry>
        </mxCell>
        <mxCell id="VNTfguZz3X94q699JYYR-19" value="1 5 x $100" style="text;html=1;align=center;verticalAlign=middle;whiteSpace=wrap;rounded=0;" vertex="1" parent="1">
          <mxGeometry x="59" y="78" width="60" height="30" as="geometry" />
        </mxCell>
        <mxCell id="VNTfguZz3X94q699JYYR-20" value="2 5 x $110" style="text;html=1;align=center;verticalAlign=middle;whiteSpace=wrap;rounded=0;" vertex="1" parent="1">
          <mxGeometry x="189" y="78" width="60" height="30" as="geometry" />
        </mxCell>
        <mxCell id="VNTfguZz3X94q699JYYR-21" value="2 10 x $90" style="text;html=1;align=center;verticalAlign=middle;whiteSpace=wrap;rounded=0;" vertex="1" parent="1">
          <mxGeometry x="59" y="95" width="60" height="30" as="geometry" />
        </mxCell>
        <mxCell id="VNTfguZz3X94q699JYYR-22" value="$120" style="text;html=1;align=center;verticalAlign=middle;whiteSpace=wrap;rounded=0;" vertex="1" parent="1">
          <mxGeometry x="187.5" y="60" width="60" height="30" as="geometry" />
        </mxCell>
        <mxCell id="VNTfguZz3X94q699JYYR-23" value="&lt;i&gt;FIFO&lt;/i&gt;" style="text;html=1;align=center;verticalAlign=middle;whiteSpace=wrap;rounded=0;" vertex="1" parent="1">
          <mxGeometry x="-96" y="95" width="109" height="30" as="geometry" />
        </mxCell>
        <mxCell id="VNTfguZz3X94q699JYYR-24" value="" style="endArrow=classic;html=1;rounded=0;fontSize=12;startSize=8;endSize=8;curved=1;exitX=0.25;exitY=1;exitDx=0;exitDy=0;entryX=0.179;entryY=-0.092;entryDx=0;entryDy=0;entryPerimeter=0;" edge="1" parent="1">
          <mxGeometry width="50" height="50" relative="1" as="geometry">
            <mxPoint x="202" y="100" as="sourcePoint" />
            <mxPoint x="156.74" y="141.24000000000012" as="targetPoint" />
          </mxGeometry>
        </mxCell>
        <mxCell id="VNTfguZz3X94q699JYYR-25" value="" style="endArrow=classic;html=1;rounded=0;fontSize=12;startSize=8;endSize=8;curved=1;" edge="1" parent="1">
          <mxGeometry width="50" height="50" relative="1" as="geometry">
            <mxPoint x="204" y="101" as="sourcePoint" />
            <mxPoint x="208" y="150" as="targetPoint" />
          </mxGeometry>
        </mxCell>
        <mxCell id="VNTfguZz3X94q699JYYR-27" value="2 units (Seller B)" style="text;html=1;align=center;verticalAlign=middle;whiteSpace=wrap;rounded=0;" vertex="1" parent="1">
          <mxGeometry x="177" y="144" width="103" height="30" as="geometry" />
        </mxCell>
        <mxCell id="VNTfguZz3X94q699JYYR-28" value="3 units (Seller A)&lt;div&gt;came first&lt;/div&gt;" style="text;html=1;align=center;verticalAlign=middle;whiteSpace=wrap;rounded=0;" vertex="1" parent="1">
          <mxGeometry x="74" y="144" width="103" height="30" as="geometry" />
        </mxCell>
        <mxCell id="VNTfguZz3X94q699JYYR-29" value="" style="endArrow=none;html=1;rounded=0;fontSize=12;startSize=8;endSize=8;curved=1;fillColor=#f8cecc;strokeColor=#b85450;" edge="1" parent="1">
          <mxGeometry width="50" height="50" relative="1" as="geometry">
            <mxPoint x="79" y="158" as="sourcePoint" />
            <mxPoint x="92" y="147" as="targetPoint" />
          </mxGeometry>
        </mxCell>
        <mxCell id="VNTfguZz3X94q699JYYR-30" value="&lt;font style=&quot;color: rgb(234, 107, 102);&quot;&gt;2&lt;/font&gt;" style="text;html=1;align=center;verticalAlign=middle;whiteSpace=wrap;rounded=0;" vertex="1" parent="1">
          <mxGeometry x="44" y="137" width="60" height="30" as="geometry" />
        </mxCell>
        <mxCell id="VNTfguZz3X94q699JYYR-31" value="&lt;font style=&quot;color: rgb(234, 107, 102);&quot;&gt;4&lt;/font&gt;" style="text;html=1;align=center;verticalAlign=middle;whiteSpace=wrap;rounded=0;" vertex="1" parent="1">
          <mxGeometry x="183" y="90" width="60" height="30" as="geometry" />
        </mxCell>
        <mxCell id="VNTfguZz3X94q699JYYR-32" value="" style="endArrow=none;html=1;rounded=0;fontSize=12;startSize=8;endSize=8;curved=1;fillColor=#f8cecc;strokeColor=#b85450;" edge="1" parent="1">
          <mxGeometry width="50" height="50" relative="1" as="geometry">
            <mxPoint x="211" y="89" as="sourcePoint" />
            <mxPoint x="200" y="97" as="targetPoint" />
          </mxGeometry>
        </mxCell>
      </root>
    </mxGraphModel>
  </diagram>
</mxfile>
